# xmcd
#
# Track frame offsets:
#	150
#	16554
#	28512
#	42118
#	55370
#	71078
#	84302
#	99714
#	114549
#	136291
#	149984
#	166139
#
# Disc length: 2376 seconds
#
# Revision: 0
# Processed by: cddbd v1.4PL0 Copyright (c) Steve Scherf et al.
# Submitted via: dBpowerAMP V4.0
#
DISCID=a009460c
DTITLE=The Woodys - Teardrops and Diamonds
DYEAR=2001
DGENRE=Country
TTITLE0=Teardrops and Diamonds
TTITLE1=Hearts Don't Break
TTITLE2=Don't Blame Me
TTITLE3=Sweeter Than Wine
TTITLE4=Honey I'm Wrong
TTITLE5=Hello Heartache
TTITLE6=Echoes Of Love
TTITLE7=Every Minute Counts
TTITLE8=Down Here In Denver
TTITLE9=He's Back And I'm Blue
TTITLE10=Message From Michael
TTITLE11=Sweet Destiny
EXTD=The Woodys do real trad country like it oughta be! - Brad Price
EXTT0=
EXTT1=
EXTT2=
EXTT3=
EXTT4=
EXTT5=
EXTT6=
EXTT7=
EXTT8=
EXTT9=
EXTT10=
EXTT11=
PLAYORDER=
